<svg
    width="14"
    height="14"
    viewBox="0 0 14 14"
    fill="none"
    xmlns="http://www.w3.org/2000/svg"
  >
    <path
      d="M7 0C10.8675 0 14 3.1325 14 7C14 10.8675 10.8675 14 7 14C3.1325 14 0 10.8675 0 7C0 3.1325 3.1325 0 7 0ZM10.5 4.375C10.255 4.375 10.0364 4.47141 9.87891 4.62891L6.125 8.3916L4.12109 6.37891C3.96359 6.22141 3.745 6.125 3.5 6.125C3.01875 6.125 2.625 6.51875 2.625 7C2.625 7.245 2.72141 7.46359 2.87891 7.62109L5.50391 10.2461C5.66141 10.4036 5.88 10.5 6.125 10.5C6.37 10.5 6.58859 10.4036 6.74609 10.2461L11.1211 5.87109C11.2786 5.71359 11.375 5.495 11.375 5.25C11.375 4.76875 10.9813 4.375 10.5 4.375Z"
      fill="#47B881"
    />
</svg>

