  <svg
    width="14"
    height="14"
    viewBox="0 0 14 14"
    fill="none"
    xmlns="http://www.w3.org/2000/svg"
  >
    <path
      fill-rule="evenodd"
      clip-rule="evenodd"
      d="M13.8645 11.8125L13.8732 11.8038L7.75205 1.30375L7.74331 1.3125C7.59465 1.05 7.32357 0.875 7.00002 0.875C6.67647 0.875 6.41414 1.05 6.25674 1.3125L6.24799 1.30375L0.126818 11.8038L0.135563 11.8125C0.0568617 11.9438 0.00439453 12.0837 0.00439453 12.25C0.00439453 12.7312 0.397899 13.125 0.878848 13.125H13.1212C13.6021 13.125 13.9957 12.7312 13.9957 12.25C13.9957 12.0837 13.9432 11.9438 13.8645 11.8125ZM7.87448 11.3663H6.12557V9.61625H7.87448V11.3663ZM6.12557 8.74125H7.87448V4.36625H6.12557V8.74125Z"
      fill="#D9822B"
    />
  </svg>

